

 
http://www.imdb.com/title/tt1817273/



Plot: A motorcycle stunt rider turns to robbing banks as a way to provide for his lover and their newborn child, a decision that puts him on a collision course with an ambitious rookie cop navigating a department ruled by a corrupt detective. 



Director:
 Derek Cianfrance 

Writers:
 Derek Cianfrance, Ben Coccio

Stars:
 Ryan Gosling, Eva Mendes, Anthony Pizza 

Genres:
  Crime |  Drama 

Country:
 USA 

Language:
 English 




Format                                   : AVI
Format/Info                              : Audio Video Interleave
File size                                : 1.38 GiB
Duration                                 : 2h 20mn
Overall bit rate                         : 1 404 Kbps

Video
ID                                       : 0
Format                                   : MPEG-4 Visual
Format profile                           : Simple@L3
Format settings, BVOP                    : No
Format settings, QPel                    : No
Format settings, GMC                     : No warppoints
Format settings, Matrix                  : Default (H.263)
Codec ID                                 : XVID
Codec ID/Hint                            : XviD
Duration                                 : 2h 20mn
Source duration                          : 2h 20mn
Bit rate                                 : 1 202 Kbps
Width                                    : 720 pixels
Height                                   : 304 pixels
Display aspect ratio                     : 2.35:1
Frame rate                               : 23.976 fps
Color space                              : YUV
Chroma subsampling                       : 4:2:0
Bit depth                                : 8 bits
Scan type                                : Progressive
Compression mode                         : Lossy
Bits/(Pixel*Frame)                       : 0.229
Stream size                              : 1.18 GiB (86%)
Writing library                          : XviD 1.1.2 (UTC 2006-11-01)

Audio
ID                                       : 1
Format                                   : AC-3
Format/Info                              : Audio Coding 3
Mode extension                           : CM (complete main)
Format settings, Endianness              : Big
Codec ID                                 : 2000
Duration                                 : 2h 20mn
Bit rate mode                            : Constant
Bit rate                                 : 192 Kbps
Channel(s)                               : 2 channels
Channel positions                        : Front: L R
Sampling rate                            : 48.0 KHz
Bit depth                                : 16 bits
Compression mode                         : Lossy
Stream size                              : 193 MiB (14%)
Alignment                                : Aligned on interleaves
Interleave, duration                     : 32 ms (0.77 video frame)




    	http://addpix.net/viewer.php?file=59536689131635379769.jpg
    	http://addpix.net/viewer.php?file=43758119991393558143.jpg
    	http://addpix.net/viewer.php?file=29857721558933023590.jpg
    	http://addpix.net/viewer.php?file=23638412674993577322.jpg
    	http://addpix.net/viewer.php?file=40191282043887860062.jpg
    	http://addpix.net/viewer.php?file=19842413614992570582.jpg